<svg id="Pagina_inicial_Escritorio" data-name="Pagina inicial Escritorio" xmlns="http://www.w3.org/2000/svg" viewBox="0 0 346.6 316"><defs><style>.cls-1{fill:#d1ecfb;}.cls-2{fill:#57d357;}.cls-3{fill:#103754;}.cls-4{fill:none;}.cls-5{fill:#c1e2de;}.cls-6{fill:#0e303f;}.cls-10,.cls-7{fill:#fff;}.cls-8{fill:#b7c9cb;}.cls-9{fill:#1fe5e0;}.cls-10,.cls-11,.cls-12,.cls-9{stroke:#17aca8;stroke-miterlimit:10;stroke-width:0.5px;}.cls-11{fill:#47bfbc;}.cls-12{fill:#7cb8b6;}</style></defs><g id="Porque_somos_tu_mejor_elección" data-name="Porque somos tu mejor elección"><path class="cls-1" d="M188.5,0c-87.1,0-158,70.9-158,158s70.9,158,158,158,158.1-70.8,158.1-157.9S275.6,0,188.5,0Z" transform="translate(0 0)"/><path class="cls-2" d="M338.2,201.1c-2,0-4.8,1-4.8,1.7s-2.8,1.9-3.9,2.4-2.7,3.3-3.2,4.2-2.7.7-3.5,1-2.6,1.8-2.6,2.6-.5.7-1-.2l-1.1,1.1-1.4,1.5c-.8,2.4-3.3,5.5-4.2,5.7s-1,4.4-1,6.1a8.09,8.09,0,0,0,1.5,4.7v1.4l.2,2.7a4.8,4.8,0,0,0,1.6,4.3c.5.3,4.3-.7,5.8-1l2-.8a160.68,160.68,0,0,0,16.2-37.7Z" transform="translate(0 0)"/><path class="cls-2" d="M77.2,205.1c-.2.5,2.6,3.3,3.6,4.3a29.49,29.49,0,0,1,3.9,7.3,13.25,13.25,0,0,1,0,4.7,7.91,7.91,0,0,0,.6,2.4c.1.6-.9,5.1-.6,7s-2.2,7.6-2,10.6,1.4,6.6,1.8,6.4.7,2.6-.1,3-1.9,2.6-1.4,2.7,0,2.4.1,3.3.9,6.9,1,8.4,2.3,5.1,2.7,6.4.9,3.5,1,3.9l.3.8a10.9,10.9,0,0,1,2.3,1c.5.3,3.9.1,5-.1s.1-1.2-.3-1.7-.9-3.2-1.5-3.4-.8-3.6-.3-4.4,2.5-1.9,2.7-2.6.2-3.5-.2-4,.1-4-.2-5.8,3.1-3.4,3.3-4.8,4-3,4.8-3.6,1.6-4.8,1.1-5.6,1.4-1.6,2.2-1.6l2-.6c.2,0,1.2-1.8,1.7-2.2s1.6-4.7,2.5-5.3a7.67,7.67,0,0,0,1.7-4,10.57,10.57,0,0,1,1.9-3.6c.5-.7,4-2.3,4.7-2.5s1.6-5.9,1.8-8a45.21,45.21,0,0,1,1.4-5.5c0-.7,1.1-1.2,1.4-1.5s1-2.8,1.6-3.4,2.5-3.1,2.5-3.6a18.26,18.26,0,0,1,.7-3.2v-3.5c-.6-1.7-2.5-3.9-3-3.3s-2.6-1.5-3.7-1.9a18.59,18.59,0,0,0-4.5-.7c-.7,0-3.1-1.9-4.2-2.3a37.64,37.64,0,0,1-4.3-1.1c-.5-.3-1.1-4.4-3.4-5.8s-6.1-4.5-6.6-5.7-4.7-3.5-6-4.3-3.3-.9-3.5-.6-1.9-2.3-2.7-3-3.4-1.2-3.5-.7-1.8.2-2.2-.2-1.7.2-2.4.5-2.7,3.4-3.7,4.2-2.2-.7-2.8-1a6.8,6.8,0,0,0-3.7,1c-.7.5-2.2-3.4-1.8-5.2s-1.6-5.3-3.2-5.5-1.9-3.9-1.7-5.2-2.7-2.3-3.5-2.4-2.6,1.8-3,2.8-7.3-1.2-6.5-5.5,4.1-8.5,4.9-9,5.2-.7,6.2-.1a1.79,1.79,0,0,0,2-.2,13.75,13.75,0,0,1,4.9.5c1,.5,2.6,4.7,3.7,5.1s1.5-2.7,1.7-3.5a10.16,10.16,0,0,0-.8-3.3c-.2-.6,1.8-5.7,3.5-6.5s3.5-3.7,3.3-4.2,1.4-.9,1.7-1.1,0-4.3.6-5.2a19.17,19.17,0,0,1,4.9-3.2c1-.5,1.7-3,1.4-3.5s2.6-3,4.2-3.5,2.8.9,2.5,1l3.3-1.8c.9-.6,0-2.6-.7-3.2s-.2-2.7.6-3a2.89,2.89,0,0,0,1.2-2.5c-.2-.3,3.4.3,4.8-.7s.3,2.4-.6,3.9a1.59,1.59,0,0,0,.42,2.22,1.56,1.56,0,0,0,1,.28,1.51,1.51,0,0,1,1.5,1.1c.1.3,1.5-.5,2.4,0s1.5-1.2,1.5-2-2.2-2.3-2.5-3.3a52.27,52.27,0,0,1-.5-7.4c0-1-1.5-2.8-1.9-2.5s-1.4-2.8-2.2-3.5a4,4,0,0,1-.9-2.7c0-.5-2.5-3.2-3.2-4.4s-1.5-1-1.6-.5-1.8.7-2.6.6-1.4-3-1.4-4-3.3-1.2-3.9-2.2-2.7-.5-3.1-1a3.59,3.59,0,0,0-2.6-.9c-.3.2-.2,8.1-.6,10.1s-2.2,4-2.8,3.9-.2,1.5.1,1.4-1.2,2.3-1.5,3.9-1.8,0-2-1.5-1.8-3.4-2.2-3-1.4-.6-1.8-.2-3.4-1.7-4.7-2.4-1.8-4.3-2.6-4.7-.1-.8-.1-1.4,2.4-2.7,3.1-3.5a55.28,55.28,0,0,1,4.3-5c1-.8,1.8-2.6,1.6-3s4.4-1.8,5.7-2.2,2.3-3.9,2.5-4.9a4.22,4.22,0,0,0-1.4-3.1c-.6-.2,1.7-.3,2.5.1s3.1-.7,4.1-.2l4.2,2.5L92.9,62l-.6,4.3c-3.6,1.5-4.7,4.1-3.4,4s7,2.5,8.6,3.6,2.2-1.7,2.6-2.6a7.68,7.68,0,0,0,0-4.2c-.5-.6,1.8-.3,2.5.2s1.4-.6,1.8-.9.7-2.6,1-3.1-1-.9-1.1-1.6-2.6-1.7-3.4-2.2a2,2,0,0,1-.6-2.5c.3-.3-.2-2.6-.7-3.3s-3.1-1.4-4-1.4-1.8-2-2.4-2.4a16.51,16.51,0,0,0-4.9-.5c-.8.2-2.4-2.5-3.9-1.6s-3-.9-3.6-1.4-4.1,3.3-4,5.8,1.2,5,1.8,5.1-.1,2.4-.7,3.1-2-.7-1.5-1.2-1.5-3.3-2.2-4.3-2.3-1.5-3.4-1.9l-2,2.3a5.74,5.74,0,0,1,.2,3.1c-.5,1.6-1.8,1.8-1.8,1.1a1.93,1.93,0,0,0-1.5-.6,157.14,157.14,0,0,0-35.6,82.6,7.55,7.55,0,0,1,1.8,2.6c.5,1.4,2.8,2.3,3.3,2.6s.6-2.6.2-3.4.6-1.1.6-.7,2.3,3.1,3,4.1,1.5,6.9,2.3,8.2,7.6,4,9.9,4.4a12.53,12.53,0,0,1,5.5,3.6c.5.7,3.4,1,4,1.4a32.76,32.76,0,0,1,2.7,2.7,4,4,0,0,1,1.1,1.9c0,.3,3.9,1.8,4.9,2.8a2.38,2.38,0,0,0,2.8.3c.2-.5,1,2,1.5,3s.5,3,.1,3.3-.8,4.2-1.5,5-2,6.5-1.7,7.6a8.35,8.35,0,0,0,3,3.7.91.91,0,0,1,.35,1.23l0,.07-.4.3c-.6,0-.3,5.6,1.1,6.4S77.5,204.7,77.2,205.1Z" transform="translate(0 0)"/><path class="cls-3" d="M95.8,108.9" transform="translate(0 0)"/><path class="cls-2" d="M85,42.2c1.8-.3,5-.9,5.2-1.4a4.82,4.82,0,0,0-.1-2.2H91c.7,0,1.9-3.9,2.6-4.8s5-2.3,6-2.8,3.3-2.7,4.1-3.1,2.2-2.3,1.9-2.6,3-2.3,4.1-2.7,1.8-1.8,1.4-1.9-6.8,3.4-12.8,6.8A178.4,178.4,0,0,0,78.8,43.1Z" transform="translate(0 0)"/><path class="cls-2" d="M199.4,238.9c1.9-1.1,5.5-6.2,6.6-7.3s1.9-4.9,2.2-5.7a6.48,6.48,0,0,1,2.5-2.4c.6-.2,2.6-8.6,4.4-10.6s3.9-10.8,3.6-14.1,1.1-9.3,1.6-10.8a16.63,16.63,0,0,1,3.3-4.7,95.6,95.6,0,0,0,6.4-9.2c1.4-2.3,2.7-7.3,2.4-8.5s-3.3-2-3.9-1.4-3.4,1-4.3,1-3-4.9-4.2-5.8-2.4-6.6-3.2-7.6a52.18,52.18,0,0,0-3.4-4.3c-.7-.6-.8-3.5-.9-4.3s1.2.5,1.5,1.7,3.5,5.9,4.5,7.5,3.7,6.7,4.4,8.3,6.7.8,8.7-.1,4.4-2.5,4.5-3.1,3.2-1.9,4.1-2.6,1.6-4.3,2.2-4.9-.5-4.1-1.1-5.1-3.7-1.8-4.4-1.5-1.9-2.3-2.5-3.3-2.8-2.3-3.1-3a2.49,2.49,0,0,1,1-2c.3-.2,4.8,2.8,6,4.4a24.86,24.86,0,0,1,3,4.9c.2.6,3.7.7,4.5.1a1.21,1.21,0,0,1,1.7,0l.1.12.2.2h1l3.9-.6a7.47,7.47,0,0,1,2.3,4.1,4.38,4.38,0,0,0,1.8,2.2c.7.1,1.2,2.6,1.5,3.3a55.81,55.81,0,0,1,2.8,5.9,33.38,33.38,0,0,0,2.7,5.5,12.73,12.73,0,0,1,.8,3.9,2.61,2.61,0,0,0,2.3,1.8c.8-.1,2.6-5.6,3.1-7.6s1.8-3.7,2.2-3.7.7-1.1.7-1.6,2.2-.3,2.4-.9.8-4.2,1.6-4.8a34.14,34.14,0,0,1,4.5-2.7c.9-.3,3.5,1.8,4.1,2.8a8.49,8.49,0,0,1,.8,4c-.2.3,1.2,2.6,2.6,2.6s1.7,1.7,1.8,2.3,1.8,2.4,2.2,3.2a7.4,7.4,0,0,1,0,3.5,17.88,17.88,0,0,0,.1,4.2c.2.8,4.3,5,5.9,6.2s2.3-2.6,1.5-3.7-3.5-4-4.1-4.8-.7-4.2-.5-5.1,2.4.5,3.2,1.1a6.55,6.55,0,0,1,2,2.6c0,.5,5.6-2.6,5.8-5.9s2-7.2,2.2-8.1a2.38,2.38,0,0,0-1-2.2c-.5-.1.8-2.5,2.4-2.5s5.2-4.1,6.1-5.8a13.16,13.16,0,0,1,2.8-3.2,24.53,24.53,0,0,0,1.6-5.7c.2-1.6-.9-4.1-1-5a13.39,13.39,0,0,0-1.8-3.3,6.9,6.9,0,0,1-.5-3.3c.1-.3,1.6-.8,1.7-1.2s1.7-2,1.6-2.8.9,1,1.7,1.6,1.5,4.7,2.4,5,4.5-4.2,4.1-7.3,1-6.9,1.9-7.3,2.4-2.7,3.5-4.4a158.11,158.11,0,0,0-39-61.3h-.6l-1.4-.2c-2.3-.5-3.5-2.8-3.2-3.4a1.56,1.56,0,0,0,0-1,42.36,42.36,0,0,0-3.9-3.3h-2.8a12.52,12.52,0,0,1-4.8-1.5c-.5-.5-2.3.5-2.4,1.5s-3.2,1.4-3.4,2.2a1.8,1.8,0,0,1-2.2.5c-.2-.5-3.2,1-4.5,1.1a20.7,20.7,0,0,0-4.7,1.6,7,7,0,0,0-2.4,2.4,7.46,7.46,0,0,1-2.6,1.8c-.6.2-.5,2.8.2,3.3s-1.4-.3-2.4-.8-1.9,1.1-2.3,1.7-1.1-.3-1.1-1.1-2.4-1.4-2.6-.8-1.9-.2-2.6-.6-3.6,2.7-4.8,3.9-6.4,1.9-7.3,1.6-1.9,2.3-1.1,2.5h-3.2a27.93,27.93,0,0,0-7.5,2.8,1.2,1.2,0,0,1-2-.8c0-.7-1.8-1.2-2.3-1.4s-1.6,3.5-2.5,4.2-2-2.8-4.3-3.5-5.7-2.7-6.7-3-3-2.3-3.5-3-3.4-1-4.3-1-3.9,1.7-4.7,2.3-1.9.5-2.4.8l-5,4.4c-1.2,1-3.5,5.3-4.2,6.5a2.7,2.7,0,0,1-2.2,1.2,2.22,2.22,0,0,0-.8,1.6c0,.5-3.7,2.4-4.2,4.1s.5,5.7.5,7,1.4,4.2,2.4,4.2.6,2.4.2,3.1.7,1.4.6,1.9-2.6,1.4-3.4,1.6a5.7,5.7,0,0,0-2.3,2.8c-.1.6-2.6,1-3.5,1.8A10.65,10.65,0,0,1,168,93a3.08,3.08,0,0,0-.6-2.8c-.3-.3-.6-4.9-1.2-5.9a25.66,25.66,0,0,0-2.6-3c-.3-.3.2-1.5.6-2s-2.2-.8-2.7-.5-1,4.9-1.2,6.1a3.9,3.9,0,0,0,1.6,3.2c.5.1.2,2.3-.6,2.4s-1.6,3.3-1.1,4.1-.6,2.2-1,2.5,3.2.1,4.9.1a4.38,4.38,0,0,1,2.8.8c-.1.1-3.2.6-3.7,1.2s-2.6,2-3,2.6.7,1.7,1.5,1.7,1.8,3,2.5,3.5a2.48,2.48,0,0,1,.1,2.6c-.2.5-4.4-.2-5.9.1s-3.5,3.6-3.6,4.9a32.22,32.22,0,0,0,.5,5.8c.1,1,3.4,1.6,4.1,2s3.7,0,4.4.3,2.7-3.2,3.2-4.8,3.7-4.5,4.4-5.7,4.2-.9,5.1-1.5.5,2.7.8,4.5,3.9,1.6,3.3-.1.3-2.4.5-1.8,3.4,1.9,4.1,2.8.5,3-.2,3-.8,2.2,0,2.5,1.8-2.5,2.6-3,1.5-2.2,1.1-2.3.7-1.7,1.1-1.1a20.3,20.3,0,0,0-3.2-4.8c-1.5-1.5-.3-.8,2.2,1.4l1.8,2.5c.3.5.8,1.8,1.1,2.3l.5.7a18,18,0,0,1,.7,4,2.61,2.61,0,0,0,2.3,1.8,1.51,1.51,0,0,1,1.4.5c-.1.1.6,1.7,1.4,1.7s1.2-2.2.3-2.2-.7-3.2-.8-4.7.6-2.5.9-2.5,0,2.8,0,3.5a10.94,10.94,0,0,0,.8,2.8l.9.7,1.9,1.5c2.8-.8,6.7-.1,6.5.5s2,.7,2.2-.2.2.1.2.7-1.8,3.2-2.2,4.3-6.9.3-9.8.1-7,.7-7.3,1.6-4.7-1.9-6.7-2.7-3.6-3.9-4-4.3.3-1.4.1-2-4.8-.7-6.1-.2-8.3,1.2-9.9,1.9-4.1,0-4.9-.1-2.6,2.2-3.5,2.5-2,3.6-2.6,7.2l-1.2,2.4-.8,1.6c-2.3,1.7-4.8,7.5-5.6,8.7s-1.4,9.5-1.4,12.4,2.4,8.7,3.2,10.5,4.9,5.2,6.4,6.1,6,1,7.5,1a4.39,4.39,0,0,0,3.7-3.2l2.2.2h1c0,1.2,3.3,2.2,4.1,2.6a6.22,6.22,0,0,0,3.5-.1c.6-.1,1.4,5.6.9,7.3s1.1,7.5,1.6,9.3,2.5,6.6,2.6,8.3-1.1,7.5-1.4,9.5,2.5,7.6,3.2,9.5a34.64,34.64,0,0,1,1.2,7c0,.9,3,6.8,3.6,9.2S197.3,240.1,199.4,238.9Z" transform="translate(0 0)"/><path class="cls-2" d="M329.5,167.1c.1.5,2-1,3.2-1.2s1.8-3.2.9-3.4-1.9-2.6-2.6-2.8-1.8,1-1.8,1.9-2,1.2-2.5,2-.3,1.2,0,1.2A10.53,10.53,0,0,1,329.5,167.1Z" transform="translate(0 0)"/><path class="cls-2" d="M327.3,183.8c.6-.2,0-3.2-1.2-3.4s-4.4,4-3.9,6.4,1.2,2.3,1.6,1.7,2.3.3,2.8.5.6-.3,0-1.2S326.7,184.1,327.3,183.8Z" transform="translate(0 0)"/><path class="cls-2" d="M320.8,180.9c.1-1,.3-4.4.5-5.1s-1.8-2.6-2.8-3-4.1,6.5-6.4,7.7-3.1,5.5-2.5,6.4,5.3,1.5,6.1,2.2,1.7-.1,2.3-.2.3-.5.1-.6,1.6-2,1.9-3.3A31.92,31.92,0,0,0,320.8,180.9Z" transform="translate(0 0)"/><path class="cls-2" d="M307.8,192.4c-1.7-.7-3.9.3-4,1s6.8,1.8,9.2,2.4,3.7.8,3.3.5Z" transform="translate(0 0)"/><path class="cls-2" d="M322.3,146.4c.6-.8-.8-4.4-1.5-3.6s-.1,3,0,3.7S321.7,147.2,322.3,146.4Z" transform="translate(0 0)"/><path class="cls-2" d="M326.4,154.3c.5-.9-.5-1.9-2-2.3s-1.2,4.2-.6,4.8S326,155.2,326.4,154.3Z" transform="translate(0 0)"/><path class="cls-2" d="M334.4,182.7c1.8,1.2,5.9.7,6-1.7C338.6,179.8,334.3,180,334.4,182.7Z" transform="translate(0 0)"/><path class="cls-2" d="M333.4,126.4a2.61,2.61,0,0,0-.9,2.4h-.3c-.6,0-.7,2.4,0,2.8s2.2-1.8,3-2.4a4,4,0,0,1,2.6-.7,7.5,7.5,0,0,0,3.1-.9,2.7,2.7,0,0,0,.9-1c-.3-1.7-.8-3.4-1.1-5.2l-2,1.5Z" transform="translate(0 0)"/><path class="cls-3" d="M291.6,175" transform="translate(0 0)"/><path class="cls-2" d="M303,185.6a21,21,0,0,0-4.8-5.6l-.7-1.2-.8-1.4c-.7-1.5-3-2.6-3.2-3.1s-.9,1.2-1.7.8l2.4,1.7c2,1.5,6.1,11.8,7.2,12.5S303.6,187,303,185.6Z" transform="translate(0 0)"/><path class="cls-2" d="M270.4,168.9c-.6,1.1,3,3.6,3.3,3.1a7.47,7.47,0,0,0-1-4C271.9,167.3,271,167.7,270.4,168.9Z" transform="translate(0 0)"/><path class="cls-2" d="M222.6,223.8c.1,1.2,2.6,2.2,3.3,1.9s2.7-3.9,3-4.9a32.23,32.23,0,0,0,.6-3.9,4.92,4.92,0,0,1,.6-1.9,7.66,7.66,0,0,0,1-2.7c.2-1.4-1.5-7.8-1.5-9s-1.2.6-1.6,1.7-3.5,3.5-4.3,4.4-1.5,4.2-1.1,4.8a7.34,7.34,0,0,1-.6,3.4C221.5,218.4,222.4,222.7,222.6,223.8Z" transform="translate(0 0)"/><path class="cls-2" d="M106.2,268.8h2.2C108.6,266.4,106.1,266.8,106.2,268.8Z" transform="translate(0 0)"/><path class="cls-2" d="M164.1,24.1a7.25,7.25,0,0,1-3.6-.8,8.71,8.71,0,0,0-4.9-.3c-1,.5-.3-2.5,1-2.7s.2-2.3-1.2-2.3-5.2-.6-6-.3a14.64,14.64,0,0,1-3.2-.7c-.6-.1-5.1,1.4-7.2,1.2a48.17,48.17,0,0,0-8.4.5c-1.1.2-1.9,2.5-1.7,3.3s-5,.8-6.6.8-10.3,1.8-12.6,3.1-4,4.4-3.3,4.4-1.2,1.8-2.5,2.3-4.1.6-4.8,1.2.7,1.1.9,1.6,1-.3,1.8.1,3.3.6,4,.9-2.2.8-3.4.9-1,2.6,0,3.1,3.9.7,4.1.2,3.3.5,4.7.7,2.4,3.5,2.8,4.3a14.4,14.4,0,0,1,.5,4.1c0,.8,2.4,2,2.8,1.6s.3,1.1-.7,1-.3,2.7.9,3.2.3,2.2-.3,2.7-.3,2.2-1,2.8,2.6,6.4,2.5,9.3,1.8,5.3,2.5,5.3,3.1.6,3.4,1.2,1.5-.5,1.9-.9a30.25,30.25,0,0,0,2.2-3.2c.8-1.2,2.4-7.2,2.6-7.8s3-.2,3.6-.6l3-2.2c.5-.5,4.4-2,5.6-2.8s2.8-4.1,3.7-4.9-.5-.5-1.5-1.1a1.11,1.11,0,0,1-.4-1.5l.2-.3c.2-.3,3.5.5,4.5.9s3.2-1,2.4-1.6-.3-.6,0-.3.8-1.9.5-2.4,3.2-3.1,2.6-5.6.9-5.1,1.9-5.1.7-2.8-.6-3.1,0-.5.5-.9A7.15,7.15,0,0,0,158,30c-.2-.5,1.8-1,2.2-1.6a9.64,9.64,0,0,1,3.5-1.8C164.4,26.4,164.9,24.1,164.1,24.1Z" transform="translate(0 0)"/><path class="cls-2" d="M184.6,26.4c-1.1-.3-3.4.9-3.1,1.6s-1.8-.9-3.3-.1-1.9,3.4-1.2,3.7,1.1,2.4,1.1,2.8,2.8.1,3.6-.5.6,2-.1,2.8.2,2.2,1,2.3,1.8,1.9,2.7,1.9,2.3-3.2,2.5-4.3,3.1-.2,4.3.1,1.7-4.3.3-5.1-3.1-.3-3.6-.9a4.3,4.3,0,0,0-2.2-1.1C186.3,29.6,185.7,26.7,184.6,26.4Z" transform="translate(0 0)"/><path class="cls-2" d="M195.6,28.7a7.81,7.81,0,0,0,5.2-2c.6-.5-6.1-1.8-8.7-1.9s-4.5.2-4.5.8S193.5,28.3,195.6,28.7Z" transform="translate(0 0)"/><path class="cls-2" d="M154.9,89c-.6-.2-.9,1.9-.8,2.7s2.2.8,3.1.6a1.8,1.8,0,0,0,1.5-1.6c0-.7-1.2-4-1.7-4S155.5,89.2,154.9,89Z" transform="translate(0 0)"/><path class="cls-2" d="M161.5,63.2c-.5-.8-3.9-.7-4.8-.7a12,12,0,0,1-4-1.5c-.6-.6-.8,2.2-1.6,2.5s.5.8.7.6,0,1.4-.5,1.9,2.3.9,2.6,1.8a2.3,2.3,0,0,0,2.4,1.2c1-.1,3.1-1.2,3.9-1.4S162,64.1,161.5,63.2Z" transform="translate(0 0)"/><path class="cls-2" d="M235,43.2c1.1-1.1,6.1-2.8,6.7-4.1a1.6,1.6,0,0,0-.58-2.19h-.22a1.71,1.71,0,0,0-1.2.8c-.1.2-5.8,1.5-7.5,2.4a19.1,19.1,0,0,0-4.4,2.8c-.7.7-1.9,6.4-2.3,6.9s1.8,2.8,2.8,3.5a5.24,5.24,0,0,0,2.8.2c.5-.1-.5-4-1-5.3S233.9,44.5,235,43.2Z" transform="translate(0 0)"/><path class="cls-2" d="M229,28.6c1.8,1.8,2.8-.8,4.9-.6C233.9,24.1,228.8,25.6,229,28.6Z" transform="translate(0 0)"/><path class="cls-2" d="M265.2,29.4c0,.7,5.1,1.2,6.7.9s-.3-2.6-2.5-2.5S265.2,28.7,265.2,29.4Z" transform="translate(0 0)"/><path class="cls-2" d="M76.2,68c-.6.5,0,3.1.9,3.1s2.7-3.9,4-3.1,2.2,1,1.9.7-3.9-1.9-4.3-2.3S76.8,67.5,76.2,68Z" transform="translate(0 0)"/><path class="cls-2" d="M89.5,154.8c0,.5,2.3.3,2.6-.3s.1-1.2-.5-1.2A3.6,3.6,0,0,0,89.5,154.8Z" transform="translate(0 0)"/><path class="cls-2" d="M79.4,151c1-.2.6,1.5.8,2.2s2.8,1.1,3.4,1.6,1.8-.8,2.8-.7-.3-3.6-2-3.5-3.1-1.6-3.5-1.8a19.38,19.38,0,0,1-3-1.8c-.6-.5-5-.8-6.5-.8a4.74,4.74,0,0,0-3.4,2c-.2.5,2.4.9,3.1.5s4.2.5,5,1.2A4.18,4.18,0,0,0,79.4,151Z" transform="translate(0 0)"/><path class="cls-2" d="M74.6,154.8c0,.5,2.3.1,2.8.1s.6-.5,0-.8S74.6,154.3,74.6,154.8Z" transform="translate(0 0)"/><path class="cls-2" d="M76.2,143c-.6-.2-1,.7-1,1.1a.8.8,0,0,0,.7.8C76.3,144.9,76.9,143.2,76.2,143Z" transform="translate(0 0)"/><path class="cls-2" d="M81.1,143.3a1.91,1.91,0,0,0-1.5-.8c-.3,0-.5.7-.5,1.7S81.2,143.7,81.1,143.3Z" transform="translate(0 0)"/><path class="cls-2" d="M84.5,148.6c.9-.5,1-1.5.5-1.5s-1.6-1.6-2.2-1.8-1,1-1,1.5a.7.7,0,0,0,.59.8h.11C82.9,147.5,83.6,149.1,84.5,148.6Z" transform="translate(0 0)"/><path class="cls-2" d="M341.4,184.8c-.5.2-2.7.5-3.1.1s-.7.9-1.2,1.1a.6.6,0,0,0,.6,1c.8-.3,2.7.9,4.4,2,.3-1.7.7-3.5.9-5.3Z" transform="translate(0 0)"/><path class="cls-2" d="M77.2,205.1c-.2.5,2.6,3.3,3.6,4.3a29.49,29.49,0,0,1,3.9,7.3,13.25,13.25,0,0,1,0,4.7,7.91,7.91,0,0,0,.6,2.4c.1.6-.9,5.1-.6,7s-2.2,7.6-2,10.6,1.4,6.6,1.8,6.4.7,2.6-.1,3-1.9,2.6-1.4,2.7,0,2.4.1,3.3.9,6.9,1,8.4,2.3,5.1,2.7,6.4.9,3.5,1,3.9l.3.8a10.9,10.9,0,0,1,2.3,1c.5.3,3.9.1,5-.1s.1-1.2-.3-1.7-.9-3.2-1.5-3.4-.8-3.6-.3-4.4,2.5-1.9,2.7-2.6.2-3.5-.2-4,.1-4-.2-5.8,3.1-3.4,3.3-4.8,4-3,4.8-3.6,1.6-4.8,1.1-5.6,1.4-1.6,2.2-1.6l2-.6c.2,0,1.2-1.8,1.7-2.2s1.6-4.7,2.5-5.3a7.67,7.67,0,0,0,1.7-4,10.57,10.57,0,0,1,1.9-3.6c.5-.7,4-2.3,4.7-2.5s1.6-5.9,1.8-8a45.21,45.21,0,0,1,1.4-5.5c0-.7,1.1-1.2,1.4-1.5s1-2.8,1.6-3.4,2.5-3.1,2.5-3.6a18.26,18.26,0,0,1,.7-3.2v-3.5c-.6-1.7-2.5-3.9-3-3.3s-2.6-1.5-3.7-1.9a18.59,18.59,0,0,0-4.5-.7c-.7,0-3.1-1.9-4.2-2.3a37.64,37.64,0,0,1-4.3-1.1c-.5-.3-1.1-4.4-3.4-5.8s-6.1-4.5-6.6-5.7-4.7-3.5-6-4.3-3.3-.9-3.5-.6-1.9-2.3-2.7-3-3.4-1.2-3.5-.7-1.8.2-2.2-.2-1.7.2-2.4.5-2.7,3.4-3.7,4.2-2.2-.7-2.8-1a6.8,6.8,0,0,0-3.7,1c-.7.5-2.2-3.4-1.8-5.2s-1.6-5.3-3.2-5.5-1.9-3.9-1.7-5.2-2.7-2.3-3.5-2.4-2.6,1.8-3,2.8-7.3-1.2-6.5-5.5,4.1-8.5,4.9-9,5.2-.7,6.2-.1a1.79,1.79,0,0,0,2-.2,13.75,13.75,0,0,1,4.9.5c1,.5,2.6,4.7,3.7,5.1s1.5-2.7,1.7-3.5a10.16,10.16,0,0,0-.8-3.3c-.2-.6,1.8-5.7,3.5-6.5s3.5-3.7,3.3-4.2,1.4-.9,1.7-1.1,0-4.3.6-5.2a19.17,19.17,0,0,1,4.9-3.2c1-.5,1.7-3,1.4-3.5s2.6-3,4.2-3.5,2.8.9,2.5,1l3.3-1.8c.9-.6,0-2.6-.7-3.2s-.2-2.7.6-3a2.89,2.89,0,0,0,1.2-2.5c-.2-.3,3.4.3,4.8-.7s.3,2.4-.6,3.9a1.59,1.59,0,0,0,.42,2.22,1.56,1.56,0,0,0,1,.28,1.51,1.51,0,0,1,1.5,1.1c.1.3,1.5-.5,2.4,0s1.5-1.2,1.5-2-2.2-2.3-2.5-3.3a52.27,52.27,0,0,1-.5-7.4c0-1-1.5-2.8-1.9-2.5s-1.4-2.8-2.2-3.5a4,4,0,0,1-.9-2.7c0-.5-2.5-3.2-3.2-4.4s-1.5-1-1.6-.5-1.8.7-2.6.6-1.4-3-1.4-4-3.3-1.2-3.9-2.2-2.7-.5-3.1-1a3.59,3.59,0,0,0-2.6-.9c-.3.2-.2,8.1-.6,10.1s-2.2,4-2.8,3.9-.2,1.5.1,1.4-1.2,2.3-1.5,3.9-1.8,0-2-1.5-1.8-3.4-2.2-3-1.4-.6-1.8-.2-3.4-1.7-4.7-2.4-1.8-4.3-2.6-4.7-.1-.8-.1-1.4,2.4-2.7,3.1-3.5a55.28,55.28,0,0,1,4.3-5c1-.8,1.8-2.6,1.6-3s4.4-1.8,5.7-2.2,2.3-3.9,2.5-4.9a4.22,4.22,0,0,0-1.4-3.1c-.6-.2,1.7-.3,2.5.1s3.1-.7,4.1-.2l4.2,2.5L92.9,62l-.6,4.3c-3.6,1.5-4.7,4.1-3.4,4s7,2.5,8.6,3.6,2.2-1.7,2.6-2.6a7.68,7.68,0,0,0,0-4.2c-.5-.6,1.8-.3,2.5.2s1.4-.6,1.8-.9.7-2.6,1-3.1-1-.9-1.1-1.6-2.6-1.7-3.4-2.2a2,2,0,0,1-.6-2.5c.3-.3-.2-2.6-.7-3.3s-3.1-1.4-4-1.4-1.8-2-2.4-2.4a16.51,16.51,0,0,0-4.9-.5c-.8.2-2.4-2.5-3.9-1.6s-3-.9-3.6-1.4-4.1,3.3-4,5.8,1.2,5,1.8,5.1-.1,2.4-.7,3.1-2-.7-1.5-1.2-1.5-3.3-2.2-4.3-2.3-1.5-3.4-1.9l-2,2.3a5.74,5.74,0,0,1,.2,3.1c-.5,1.6-1.8,1.8-1.8,1.1a1.93,1.93,0,0,0-1.5-.6l-2,2.6-2,2.6-2,2.8-1.8,2.5-2.6,3.9L52.9,77c-.7,1-1.2,2.2-1.9,3.3a12.58,12.58,0,0,0-1.2,2.3l-1.9,3.5-1,2c-1.4,2.7-2.7,5.6-4,8.5v.2l-1.7,4.3-.7,1.6-1.6,4.4-.2.7a159,159,0,0,0-4.4,15.3c-.1.3-.1.7-.2,1a157.24,157.24,0,0,0-2.8,16.7h0a7.55,7.55,0,0,1,1.8,2.6c.5,1.4,2.8,2.3,3.3,2.6s.6-2.6.2-3.4.6-1.1.6-.7,2.3,3.1,3,4.1,1.5,6.9,2.3,8.2,7.6,4,9.9,4.4a12.53,12.53,0,0,1,5.5,3.6c.5.7,3.4,1,4,1.4a32.76,32.76,0,0,1,2.7,2.7,4,4,0,0,1,1.1,1.9c0,.3,3.9,1.8,4.9,2.8a2.38,2.38,0,0,0,2.8.3c.2-.5,1,2,1.5,3s.5,3,.1,3.3-.8,4.2-1.5,5-2,6.5-1.7,7.6a8.35,8.35,0,0,0,3,3.7.9.9,0,0,1,.35,1.23l-.05.07-.4.3c-.6,0-.3,5.6,1.1,6.4S77.5,204.7,77.2,205.1Z" transform="translate(0 0)"/><line class="cls-4" x1="95.8" y1="108.8" x2="95.8" y2="108.8"/><path class="cls-2" d="M85,42.2c1.8-.3,5-.9,5.2-1.4a4.82,4.82,0,0,0-.1-2.2H91c.7,0,1.9-3.9,2.6-4.8s5-2.3,6-2.8,3.3-2.7,4.1-3.1,2.2-2.3,1.9-2.6,3-2.3,4.1-2.7,1.8-1.8,1.4-1.9-6.8,3.4-12.8,6.8h-.1l-5.1,3.6-3.3,2.6-1.7,1.4-3.9,3.3-.8.7-4.2,3.7Z" transform="translate(0 0)"/><path class="cls-2" d="M185,119.3c-.7,0-.8,2.2,0,2.5s1.2-1.2,1.9-2.2v-8.7h-.1c-.9-.9-.8-.9.1-.2V56.5l-2,1.8c-1.2,1-3.5,5.3-4.2,6.5a2.67,2.67,0,0,1-2.2,1.2,2.22,2.22,0,0,0-.8,1.6c0,.5-3.7,2.4-4.2,4.1s.5,5.7.5,7,1.4,4.2,2.4,4.2.6,2.4.2,3.1.7,1.4.6,1.9-2.6,1.4-3.4,1.6a5.7,5.7,0,0,0-2.3,2.8c-.1.6-2.6,1-3.5,1.8s.6-1.4.7-1.8a3.11,3.11,0,0,0-.6-2.8c-.3-.3-.6-4.9-1.2-5.9a25.66,25.66,0,0,0-2.6-3c-.5-.3.2-1.5.6-2s-2.2-.8-2.7-.5-1,4.9-1.2,6.1a3.89,3.89,0,0,0,1.6,3.2c.5.1.2,2.3-.6,2.4s-1.6,3.3-1.1,4.1-.6,2.2-1,2.5,3.2.1,4.9.1a4.38,4.38,0,0,1,2.8.8c-.1.1-3.2.6-3.7,1.2s-2.6,2-3,2.6.7,1.7,1.5,1.7,1.8,3,2.5,3.5a2.48,2.48,0,0,1,.1,2.6c-.2.5-4.4-.2-5.9.1s-3.5,3.6-3.6,4.9a32.22,32.22,0,0,0,.5,5.8c.1.9,3.4,1.6,4.1,2s3.7,0,4.4.3,2.7-3.2,3.2-4.8,3.7-4.5,4.4-5.7,4.2-.9,5.1-1.5.5,2.7.8,4.5,3.9,1.6,3.3-.1.3-2.4.5-1.8,3.4,1.9,4.1,2.8S185.7,119.3,185,119.3Z" transform="translate(0 0)"/><path class="cls-2" d="M187,130.1l-1.7-.8c-2-.8-3.6-3.9-4-4.3s.3-1.4.1-2-4.8-.7-6.1-.2-8.3,1.2-9.9,1.9-4.1,0-4.9-.1-2.6,2.2-3.5,2.5-2,3.6-2.6,7.2l-1.2,2.4-.8,1.6c-2.3,1.7-4.8,7.5-5.6,8.7s-1.4,9.5-1.4,12.4,2.4,8.7,3.2,10.5,4.9,5.2,6.4,6.1,6,1,7.5,1a4.39,4.39,0,0,0,3.7-3.2l2.2.2h1c0,1.2,3.3,2.2,4.1,2.6a6.22,6.22,0,0,0,3.5-.1c.6-.1,1.4,5.6.9,7.3s1.1,7.5,1.6,9.3,2.5,6.6,2.6,8.3-1.1,7.5-1.4,9.5,2.5,7.6,3.2,9.5a34.64,34.64,0,0,1,1.2,7,21.52,21.52,0,0,0,1.6,4.1V129.9h0Z" transform="translate(0 0)"/><path class="cls-2" d="M106.2,268.8h2.2C108.6,266.4,106.1,266.8,106.2,268.8Z" transform="translate(0 0)"/><path class="cls-2" d="M149.8,52.6c1.1.5,3.2-1,2.4-1.6s-.3-.6,0-.3.8-1.9.5-2.4,3.2-3.1,2.6-5.6,1-5.1,1.9-5.1.7-2.8-.6-3.1,0-.5.5-.9a7.15,7.15,0,0,0,.7-3.4c-.2-.5,1.8-1,2.2-1.6a8.92,8.92,0,0,1,3.5-1.8c.9-.1,1.2-2.4.5-2.3a7.25,7.25,0,0,1-3.6-.8c-.5-.5-3.9-.8-4.9-.5s-.3-2.5,1-2.7.2-2.3-1.2-2.3-5.2-.6-6-.3a14.64,14.64,0,0,1-3.2-.7c-.6-.1-5.1,1.4-7.2,1.2a48.17,48.17,0,0,0-8.4.5c-1.1.2-1.9,2.5-1.7,3.3s-5,.8-6.6.8-10.3,1.8-12.6,3.1-4,4.4-3.3,4.4-1.2,1.8-2.5,2.3-4.1.6-4.8,1.2.7,1.1.9,1.6,1-.5,1.8,0,3.3.6,4,.9-2.2.8-3.4.9-1,2.6,0,3.1,3.9.7,4.1.2,3.3.5,4.7.7,2.4,3.5,2.8,4.3a14.4,14.4,0,0,1,.5,4.1c0,.8,2.4,2,2.8,1.6s.3,1.1-.7,1-.3,2.7.9,3.2.3,2.2-.3,2.7-.3,2.2-1,2.8,2.6,6.4,2.5,9.3,1.8,5.3,2.5,5.3,3.1.6,3.4,1.2,1.5-.5,1.9-.9a30.25,30.25,0,0,0,2.2-3.2c.8-1.2,2.4-7.2,2.6-7.8s3-.2,3.6-.6l3-2.2c.5-.5,4.4-2,5.6-2.8s2.8-4.1,3.7-4.9-.5-.5-1.5-1.1a1.11,1.11,0,0,1-.4-1.5l.2-.3C145.5,51.4,148.8,52.2,149.8,52.6Z" transform="translate(0 0)"/><path class="cls-2" d="M184.6,26.4c-1.1-.3-3.4.9-3.1,1.6s-1.8-.9-3.3-.1-1.9,3.4-1.2,3.7,1.1,2.4,1.1,2.8,2.8.1,3.6-.5.6,2-.1,2.8.2,2.2,1,2.3,1.8,1.9,2.7,1.9a2.73,2.73,0,0,0,1.5-1.7V29.4h0C186.3,29.6,185.7,26.7,184.6,26.4Z" transform="translate(0 0)"/><path class="cls-2" d="M157.3,92.3a1.8,1.8,0,0,0,1.5-1.6c0-.7-1.2-4-1.7-4s-1.4,2.4-2,2.2-.9,1.9-.8,2.7S156.3,92.5,157.3,92.3Z" transform="translate(0 0)"/><path class="cls-2" d="M154.1,67.9a2.3,2.3,0,0,0,2.4,1.2c1-.1,3.1-1.2,3.9-1.4s1.5-3.7,1-4.5-3.9-.7-4.8-.7a12,12,0,0,1-4-1.5c-.6-.6-.8,2.2-1.6,2.5s.3.8.7.6,0,1.4-.5,1.9S153.9,67.2,154.1,67.9Z" transform="translate(0 0)"/><path class="cls-2" d="M76.2,68c-.6.5,0,3.1.9,3.1s2.7-3.9,4-3.1,2.2,1,1.9.7-3.9-1.9-4.3-2.3S76.8,67.5,76.2,68Z" transform="translate(0 0)"/><path class="cls-2" d="M89.5,154.8c0,.5,2.3.3,2.6-.3s.1-1.2-.5-1.2A3.6,3.6,0,0,0,89.5,154.8Z" transform="translate(0 0)"/><path class="cls-2" d="M79.4,151c1-.2.6,1.5.8,2.2s2.8,1.1,3.4,1.6,1.8-.8,2.8-.7-.3-3.6-2-3.5-3.1-1.6-3.5-1.8a19.38,19.38,0,0,1-3-1.8c-.6-.5-5-.8-6.5-.8a4.74,4.74,0,0,0-3.4,2c-.2.5,2.4.9,3.1.5s4.2.5,5,1.2A4.18,4.18,0,0,0,79.4,151Z" transform="translate(0 0)"/><path class="cls-2" d="M74.6,154.8c0,.5,2.3.1,2.8.1s.6-.5,0-.8S74.6,154.3,74.6,154.8Z" transform="translate(0 0)"/><path class="cls-2" d="M76.2,143c-.6-.2-1,.7-1,1.1a.8.8,0,0,0,.7.8C76.3,144.9,76.9,143.2,76.2,143Z" transform="translate(0 0)"/><path class="cls-2" d="M81.1,143.3a1.91,1.91,0,0,0-1.5-.8c-.3,0-.5.7-.5,1.7S81.2,143.7,81.1,143.3Z" transform="translate(0 0)"/><path class="cls-2" d="M84.5,148.6c.9-.5,1-1.5.5-1.5s-1.6-1.6-2.2-1.8-1,1-1,1.5a.7.7,0,0,0,.59.8h.11C82.9,147.5,83.6,149.1,84.5,148.6Z" transform="translate(0 0)"/><path class="cls-5" d="M90.2,39c-.1-.1-.8.3-.5.6a.41.41,0,0,0,.54-.17A.42.42,0,0,0,90.2,39Z" transform="translate(0 0)"/><path class="cls-5" d="M107.7,91.2c-.1-.1-.8.3-.6.6S108,91.5,107.7,91.2Z" transform="translate(0 0)"/><path class="cls-6" d="M107,45.9H19.2A19.2,19.2,0,0,0,0,65.1V275.6a19.2,19.2,0,0,0,19.2,19.2H107a19.2,19.2,0,0,0,19.2-19.2V65.3A19.1,19.1,0,0,0,107.3,46H107Z" transform="translate(0 0)"/><path class="cls-7" d="M46.5,60.9H79.7a1.7,1.7,0,0,1,1.7,1.7,1.6,1.6,0,0,1-1.49,1.7H46.5a1.7,1.7,0,0,1,0-3.4Z" transform="translate(0 0)"/><path class="cls-7" d="M63,280.7a11.1,11.1,0,1,1,11.1-11.1A11.1,11.1,0,0,1,63,280.7Z" transform="translate(0 0)"/><rect class="cls-7" x="8.2" y="83.8" width="109.6" height="162.32"/><path class="cls-3" d="M63,261.9a7.79,7.79,0,0,0-7.7,7.7,7.7,7.7,0,1,0,7.7-7.7Z" transform="translate(0 0)"/><rect class="cls-8" x="41.1" y="99.9" width="70.1" height="6.93"/><path class="cls-8" d="M32.7,103.4a9.1,9.1,0,1,1-9.1-9.1,9.09,9.09,0,0,1,9.1,9.1Z" transform="translate(0 0)"/><rect class="cls-8" x="14.5" y="203.2" width="97" height="2.85"/><rect class="cls-8" x="14.5" y="213.1" width="97" height="2.85"/><rect class="cls-8" x="14.5" y="222.9" width="97" height="2.85"/><rect class="cls-8" x="14.5" y="232.6" width="70.4" height="2.85"/><rect class="cls-8" x="14.5" y="184.3" width="64.5" height="6.93"/><path class="cls-7" d="M41.5,150.4V137.8h2.3l1.9,5,1.4,3.6h0c-.1-1.4-.2-3.5-.2-5.8v-2.8h2.2v12.6H46.7l-1.9-4.8a34.69,34.69,0,0,1-1.2-3.7h0c0,1.2.1,3.2.1,5.8v2.8H41.5Z" transform="translate(0 0)"/><path class="cls-7" d="M56.5,144.9H53.7v3.4H57v2.2H51.3V137.8h5.5V140H53.7v3h2.8v2h0Z" transform="translate(0 0)"/><path class="cls-7" d="M59.9,140.1H57.6v-2.3h6.9v2.3H62.2v10.3H59.7V140.1h.2Z" transform="translate(0 0)"/><path class="cls-7" d="M67.6,150.4l-2.2-12.6h2.5l.6,5a34.9,34.9,0,0,0,.5,4.4h0c.1-1.6.5-3,.7-4.4l.9-5h1.9l.8,5c.2,1.5.5,2.8.6,4.4h0l.5-4.4.6-5h2.4l-2.3,12.6H72.9l-.8-4.1c-.2-1.1-.3-2.6-.6-4.1h0c-.2,1.5-.5,3-.7,4.2l-.8,4.1H67.6Z" transform="translate(0 0)"/><path class="cls-7" d="M86.4,144c0,4.8-1.7,6.7-4.1,6.7s-4-3.1-4-6.5,1.4-6.5,4.2-6.5S86.4,141,86.4,144Zm-5.6.2c0,2.8.6,4.3,1.6,4.3s1.5-1.8,1.5-4.4-.3-4.2-1.5-4.2-1.5,1.6-1.5,4.3Z" transform="translate(0 0)"/><path class="cls-7" d="M87.9,138.1l2.7-.2a4.9,4.9,0,0,1,3.4.9,3.22,3.22,0,0,1,1,2.6,3.4,3.4,0,0,1-1.9,3.2h0c.9.3,1.2,1.1,1.6,2.5a21,21,0,0,0,.8,3.4H92.9a18.06,18.06,0,0,1-.6-3.1c-.2-1.6-.6-2-1.5-2h-.3v5H88V138h-.1Zm2.5,5.5h.5a1.7,1.7,0,0,0,1.7-1.7v-.2a1.6,1.6,0,0,0-1.3-1.8h-.8v3.7Z" transform="translate(0 0)"/><path class="cls-7" d="M96.8,137.8h2.5v5.7h0l.6-1.6,1.7-4.1h2.7l-2.8,5.5,2.8,7.2h-2.7l-1.8-5.2-.6,1v4.2H96.7V137.8Z" transform="translate(0 0)"/><g id="Page-1"><g id="xamagon"><path id="Logo" class="cls-7" d="M24.5,136a1.49,1.49,0,0,0-1.5.6l-4.5,7.7a1.58,1.58,0,0,0,0,1.6l4.5,7.7a1.62,1.62,0,0,0,1.5.7h9.1a1.62,1.62,0,0,0,1.5-.7l4.5-7.7a1.58,1.58,0,0,0,0-1.6l-4.5-7.5a1.49,1.49,0,0,0-1.5-.6H24.5Zm.1,3.7v-.3h1.6l.2.5,2.6,4.9h0l2.6-5,.2-.3h1.6a.6.6,0,0,1,.2.6L31,144.9l2.6,4c.1.1,0-.3-.2-.3H31.8a2.49,2.49,0,0,1-.2.6L29,144.9h0L26.4,149a1.85,1.85,0,0,0-.2-.6H24.6a1.57,1.57,0,0,0-.2.3l2.6-4.3-2.6-4.5a.2.2,0,0,1,.06-.28l0,0h.1v.1Z" transform="translate(0 0)"/></g></g></g><path class="cls-9" d="M92.3,149.93v2.72c-.12,3-1.75,5.31-4,7.24a5.26,5.26,0,0,1-2.68,1.34c-.48.07-1.05.16-1.32-.37s.14-1,.55-1.3a10.74,10.74,0,0,0,3.43-4.87,7.53,7.53,0,0,0-.61-6.61c-.55-1-.89-1.08-1.92-.86s-1.52.69-1.61,1.66a6.17,6.17,0,0,1-.27,1.91,3.53,3.53,0,0,1-1.35,1.74,1.18,1.18,0,0,0-.6,1.31c.09.61,0,1.23.1,1.83.07.3.06.72.47.76s.44-.33.56-.59c.47-.92.93-1.85,1.43-2.76a4.76,4.76,0,0,1,.54-.81A.71.71,0,0,1,86,152c.36.19.33.53.25.86a15.75,15.75,0,0,1-.81,2.58c-.54,1.2-.8,2.53-1.76,3.54a3.44,3.44,0,0,1-1.56,1.13c-.57.13-.55.41-.53.82a10.4,10.4,0,0,1-1.12,5.54,19.94,19.94,0,0,1-7.08,7.62,20.76,20.76,0,0,1-5.33,2.44c-.81.24-1.68.12-2.49.36H60.44a19.49,19.49,0,0,1-4.17-.94,20.89,20.89,0,0,1-9.3-7.3,12.66,12.66,0,0,1-2.44-5.43,3.93,3.93,0,0,1-.11-1c.09-1.1.07-2-1.32-2.47-.79-.26-1.21-1.17-1.54-1.95a28,28,0,0,1-1.63-4.25c-.12-.49-.38-1.11.29-1.35s.94.34,1.19.79c.5.91.94,1.84,1.49,2.72.16.27.28.69.66.62s.38-.49.44-.79c.13-.73,0-1.48.12-2.22,0-.32-.23-.52-.47-.7a4,4,0,0,1-1.8-3.83c.09-.76-.46-1.29-1.34-1.55s-1.58-.15-2.06.59a7.58,7.58,0,0,0-.74,7,10.9,10.9,0,0,0,3.16,4.49c.46.42,1.11.85.78,1.51s-1.16.44-1.76.27c-2.19-.63-3.51-2.28-4.74-4a8.29,8.29,0,0,1-1.45-4.43v-2.72A13,13,0,0,1,35,145a10.51,10.51,0,0,1,1.35-2.13,3.83,3.83,0,0,1,4.84-.63,16.3,16.3,0,0,0,1.93.67c.6.23.59-.33.61-.7A26.83,26.83,0,0,1,45,135.59c.54-1.65.56-1.64-1.11-2.19a4.81,4.81,0,0,1-1.44-.61A.87.87,0,0,1,42,132c0-.41.37-.48.69-.57,1.44-.4,1.42-.38.45-1.53a8.1,8.1,0,0,1-2-6.19,3.63,3.63,0,0,1,.1-.66c.29-1,.81-1.24,1.73-.68a17.22,17.22,0,0,0,3.83,1.8,12.27,12.27,0,0,1-2.69-4.49,7.33,7.33,0,0,1-.43-4.55,1.87,1.87,0,0,1,1-1.45h.59a6.06,6.06,0,0,1,2.22,1.16,18.48,18.48,0,0,0,7.79,3.26,33.7,33.7,0,0,0,4.5.34,19.19,19.19,0,0,1,7,1.74,39.9,39.9,0,0,1,4.87,2.7,4.06,4.06,0,0,1,1.94,4c0,.86.24,1.15,1.06,1.22a18.73,18.73,0,0,1,3.84.8,3,3,0,0,1,2.31,2.47,82.22,82.22,0,0,1,1.47,10.93c.06.82.21.92.93.52a10.72,10.72,0,0,1,2.92-1.1A3.46,3.46,0,0,1,90,143.27a11.34,11.34,0,0,1,2.22,6.11C92.21,149.57,92.15,149.77,92.3,149.93Z" transform="translate(0 0)"/><path class="cls-10" d="M78,164.06c.26,1.4-.72,2.73-1.68,4.05a16.47,16.47,0,0,1-7.26,5.41,14.25,14.25,0,0,1-8.29.89,14.82,14.82,0,0,1-8.84-5.63c-.23-.3-.51-.54-.74-.86-1.72-2.38-1-4.59.37-6.77.34-.57.71-1.13,1-1.7a3.47,3.47,0,0,1,3.05-1.79,14.89,14.89,0,0,0,3.36-.53,1.19,1.19,0,0,0,.87-.76,16.46,16.46,0,0,0,1-4.6c0-.68.24-.91.92-.88s1.61,0,2.42-.06c.65,0,1,.14,1,1a15.82,15.82,0,0,0,.75,4.13,1.74,1.74,0,0,0,1.34,1.34,20.59,20.59,0,0,0,7.46.42c.54-.1,1.12,0,1.67,0s.43.32.52.53A17,17,0,0,1,78,164.06Z" transform="translate(0 0)"/><path class="cls-10" d="M63,140.12a13.78,13.78,0,0,1,2.88-3.27,4.72,4.72,0,0,1,4.36-.6,16.28,16.28,0,0,1,7.62,4,3.19,3.19,0,0,1,1.08,2.52A9.69,9.69,0,0,0,79,145c.14.79-.21.87-.82.87-2.46,0-4.92,0-7.37,0-1.51,0-3,.23-4.53.36-.43,0-.92.35-1,.64-.17.87-.72.76-1.32.72-.33,0-.66,0-1,0-.85-.1-1.79.43-2.41-.78-.37-.73-1.47-.68-2.29-.75-2.4-.23-4.81-.22-7.22-.21H47.87c-.29,0-.58,0-.75-.31-.52-1.07.12-4.42,1-5.31a13.83,13.83,0,0,1,4.36-2.87A16.42,16.42,0,0,1,57,136c2-.29,3.37.77,4.58,2.13C62.06,138.73,62.48,139.41,63,140.12Z" transform="translate(0 0)"/><path class="cls-10" d="M51.86,148a22.15,22.15,0,0,1,5.84.42c.93.22,1.42.64,1.4,1.68a29,29,0,0,1-.41,4.83,2,2,0,0,1-1.54,1.66,15.07,15.07,0,0,1-7.22,0c-2.17-.44-2.67-2.08-3-3.84a26.48,26.48,0,0,1-.24-2.67c-.11-1,.17-1.55,1.24-1.75A19.39,19.39,0,0,1,51.86,148Z" transform="translate(0 0)"/><path class="cls-10" d="M74.64,147.94a16.66,16.66,0,0,1,3.79.4c.68.16,1,.45.95,1.14a16.69,16.69,0,0,1-.67,4.76c-.54,1.75-2,2.18-3.57,2.47a16.26,16.26,0,0,1-6.59-.17,1.42,1.42,0,0,1-1-1.06,17.85,17.85,0,0,1-.58-6c0-.76.7-.9,1.27-1.05A26.16,26.16,0,0,1,74.64,147.94Z" transform="translate(0 0)"/><path class="cls-11" d="M58.11,168.68c1.4-.54,2.78-.29,4.1-.49a33.48,33.48,0,0,0,4.69-.9c1.48-.45,2-1.83,2.6-3.11.12-.25.23-.51.35-.77.35-.8.41-1.46-.82-1.6a7.09,7.09,0,0,1,4.58-.53c.12,0,.45,0,.39.32s-.23.28-.42.36c-.63.25-1.54,0-1.83.83a9.37,9.37,0,0,1-.85,1.56,11.79,11.79,0,0,1-2.48,3.07,4.55,4.55,0,0,1-2.47.88A33.94,33.94,0,0,1,58.11,168.68Z" transform="translate(0 0)"/><path class="cls-12" d="M62.78,160.66c-1-.5-1.91-1.16-3.13-.66a2.57,2.57,0,0,1-.88,0,1.4,1.4,0,0,1-1.21-.66c-.31-.44.19-.75.39-1a1,1,0,0,1,1.32-.36A8.26,8.26,0,0,1,62.78,160.66Z" transform="translate(0 0)"/><path class="cls-11" d="M64.59,160.65a7,7,0,0,1,3.78-2.52c.62-.2,1,.63,1.28,1.14s-.26.67-.69.75c-.25,0-.43.24-.72.2A5,5,0,0,0,64.59,160.65Z" transform="translate(0 0)"/></svg>